<?xml version="1.0" standalone="no"?>
<!DOCTYPE svg PUBLIC "-//W3C//DTD SVG 20010904//EN"
 "http://www.w3.org/TR/2001/REC-SVG-20010904/DTD/svg10.dtd">
<svg version="1.0" xmlns="http://www.w3.org/2000/svg"
 width="1347.000000pt" height="498.000000pt" viewBox="0 0 1347.000000 498.000000"
 preserveAspectRatio="xMidYMid meet">
<metadata>
Created by potrace 1.16, written by Peter Selinger 2001-2019
</metadata>
<g transform="translate(0.000000,498.000000) scale(0.100000,-0.100000)"
fill="#000000" stroke="none">
<path d="M1470 4664 c0 -12 160 -77 322 -129 193 -62 444 -177 454 -207 3 -10
3 -32 -1 -49 -4 -18 -2 -36 5 -45 12 -14 11 -67 -5 -209 -7 -56 3 -77 36 -80
15 -1 25 -11 33 -36 16 -48 39 -48 92 1 65 60 98 71 203 68 85 -3 89 -4 74
-21 -13 -13 -18 -15 -25 -5 -14 23 -9 -25 8 -76 12 -34 26 -54 49 -67 25 -15
40 -39 76 -125 l44 -105 90 6 c51 4 99 13 110 21 100 71 108 73 143 48 18 -13
21 -19 11 -30 -9 -12 -6 -14 22 -14 61 0 141 13 128 20 -15 10 -3 30 18 30 9
0 24 7 34 16 16 14 18 14 29 -5 12 -23 60 -30 60 -8 0 6 -6 35 -14 62 -7 28
-12 67 -10 85 l4 35 -15 -32 c-8 -17 -28 -41 -45 -53 -19 -13 -30 -30 -30 -45
0 -31 -18 -42 -22 -13 -2 17 -33 39 -121 90 -66 37 -121 68 -123 68 -2 0 -4
-8 -4 -18 0 -10 -5 -23 -12 -30 -23 -23 -52 -12 -80 29 -33 47 -34 54 -8 72
18 12 19 18 9 43 -16 43 -19 64 -8 64 6 0 7 5 4 10 -4 6 -10 8 -14 6 -10 -7
-53 23 -47 33 3 4 -7 16 -21 26 -13 11 -45 61 -70 112 -26 54 -54 98 -66 104
-27 14 -120 112 -152 159 -12 19 -48 64 -79 99 -30 35 -58 72 -61 83 -6 17
-29 18 -516 18 -280 0 -509 -3 -509 -6z m947 -413 c31 -18 49 -39 69 -78 14
-30 39 -63 55 -75 16 -12 29 -25 29 -28 0 -4 -28 -10 -62 -14 -34 -3 -86 -17
-116 -31 -30 -14 -58 -25 -63 -25 -13 0 -11 227 1 235 6 3 10 17 10 30 0 28 7
26 77 -14z"/>
<path d="M3195 4643 c13 -52 17 -169 6 -153 -8 11 -10 -14 -9 -90 3 -102 4
-105 25 -103 24 3 60 -38 49 -55 -10 -16 25 -73 51 -83 13 -5 22 -13 18 -18
-3 -6 0 -13 7 -18 24 -15 108 -117 108 -132 0 -25 46 31 73 89 15 30 67 101
117 157 76 86 98 120 140 210 77 170 72 163 100 163 21 0 25 5 26 30 l1 30
-360 0 -359 0 7 -27z"/>
<path d="M3916 4653 c-3 -10 -4 -53 -3 -95 2 -70 5 -80 31 -107 22 -23 30 -43
34 -81 2 -28 9 -53 13 -56 5 -3 9 -23 9 -46 0 -46 45 -113 56 -84 3 8 2 20 -2
27 -4 8 -3 9 4 5 7 -4 12 -13 12 -21 0 -10 34 -13 169 -13 l169 0 -25 61 c-13
34 -65 144 -114 245 l-89 182 -129 0 c-115 0 -130 -2 -135 -17z"/>
<path d="M4585 4403 c-5 -10 -8 -40 -9 -68 -1 -44 -3 -50 -21 -47 -11 2 -23 9
-27 15 -5 7 -8 3 -8 -11 0 -13 4 -21 8 -18 4 2 8 -3 9 -12 0 -9 3 -33 7 -52 3
-19 10 -59 16 -88 5 -30 14 -59 19 -66 6 -7 9 -15 6 -17 -2 -3 1 -25 6 -49 26
-113 91 -499 119 -705 20 -146 38 -400 29 -403 -14 -5 -11 -33 7 -67 16 -32
11 -75 -9 -75 -17 0 -56 86 -63 140 -9 62 -16 73 -70 109 -46 30 -84 40 -84
22 0 -4 16 -28 35 -52 21 -26 44 -72 56 -114 23 -76 61 -137 96 -156 25 -13
17 -33 -16 -42 -14 -3 -18 1 -17 17 1 13 -9 25 -27 34 -36 17 -53 44 -71 116
-9 32 -24 75 -33 95 -16 32 -22 36 -58 36 -94 1 -175 65 -175 139 0 21 7 27
43 37 23 7 61 28 85 46 46 38 52 62 30 135 -9 30 -20 44 -42 53 -150 64 -147
62 -144 103 3 34 5 37 38 40 43 4 54 14 45 41 -8 26 -41 45 -63 35 -9 -4 -19
-8 -22 -8 -3 -1 -18 -10 -34 -21 -22 -14 -54 -21 -125 -25 -53 -4 -103 -3
-112 1 -13 6 -122 12 -182 10 -12 -1 -25 -18 -38 -47 -23 -51 -20 -68 5 -29
26 39 36 30 36 -35 0 -46 -3 -60 -14 -60 -17 0 -31 -18 -22 -27 3 -3 12 0 21
7 12 10 15 10 15 -4 0 -9 15 -26 34 -37 33 -19 35 -24 40 -87 13 -149 43 -251
87 -298 13 -14 17 -24 10 -29 -15 -9 7 -30 41 -38 20 -5 30 -3 38 10 9 14 10
11 5 -17 -4 -19 -11 -47 -16 -61 -7 -19 -5 -45 9 -99 15 -58 21 -69 26 -52 9
27 18 28 39 5 20 -23 57 -109 50 -117 -3 -3 0 -12 7 -21 7 -8 9 -15 5 -15 -5
0 0 -8 9 -19 16 -17 16 -19 -6 -25 -13 -3 -33 -6 -45 -6 -17 0 -21 -5 -18 -22
3 -12 9 -26 15 -32 13 -13 86 -14 153 -3 45 8 47 7 48 -15 1 -22 1 -21 13 5 7
15 34 48 61 73 49 44 49 44 27 60 -12 8 -22 24 -22 35 0 25 -1 24 -52 -10 -40
-26 -128 -61 -152 -61 -6 0 15 11 47 24 56 23 102 54 93 63 -2 3 -12 0 -23 -6
-28 -17 -125 -52 -130 -48 -2 2 18 12 44 22 54 20 97 48 131 84 30 32 28 35
-10 15 l-33 -16 33 34 c36 38 41 54 13 39 -10 -6 -21 -7 -25 -4 -3 3 -6 1 -6
-5 0 -6 -13 -17 -30 -26 -16 -8 -30 -10 -30 -5 0 5 8 12 18 16 9 3 28 16 42
29 24 22 26 22 60 5 32 -15 35 -20 35 -61 0 -71 33 -104 182 -184 l128 -68 -2
-137 c-3 -136 -21 -358 -31 -375 -3 -5 -4 -35 -3 -67 l2 -58 -35 -7 c-21 -3
-36 -12 -36 -20 0 -8 -4 -14 -8 -14 -4 0 -12 -15 -17 -32 -6 -21 -21 -38 -37
-46 -16 -7 -33 -22 -38 -32 -6 -11 -28 -29 -48 -39 -21 -11 -60 -38 -87 -60
-27 -23 -55 -41 -61 -41 -7 0 -44 -25 -83 -55 -39 -30 -75 -55 -79 -55 -4 0
-52 -26 -107 -58 -55 -32 -108 -61 -118 -65 -13 -5 -16 -13 -12 -26 8 -28 -22
-43 -50 -25 -12 8 -26 10 -34 5 -9 -6 -2 -14 26 -27 21 -11 39 -27 41 -37 4
-18 -99 -339 -150 -467 -57 -145 -129 -280 -166 -310 -52 -43 -161 -92 -188
-86 -25 7 -54 -2 -54 -15 0 -5 12 -9 27 -9 14 0 44 -8 64 -17 34 -16 39 -22
39 -54 0 -21 -11 -55 -25 -80 -14 -24 -25 -47 -25 -51 0 -5 50 -8 110 -8 61 0
110 2 110 4 0 2 -7 17 -15 32 -14 26 -21 74 -11 74 2 0 64 -25 137 -55 106
-44 144 -55 188 -55 49 0 53 2 36 13 -11 7 -39 19 -62 27 -24 7 -43 16 -43 20
0 4 -11 19 -24 33 -16 17 -25 42 -30 79 -9 81 1 359 14 393 11 28 51 176 70
255 4 19 22 87 39 150 17 63 31 124 31 135 0 20 6 24 93 59 20 8 59 37 85 64
30 31 83 68 147 102 104 55 204 125 229 162 19 27 108 70 119 59 21 -21 -80
-505 -153 -734 -10 -31 -14 -54 -9 -51 9 5 4 -81 -7 -114 -2 -8 5 -16 15 -19
28 -7 37 -69 17 -108 -13 -24 -15 -51 -10 -135 3 -58 10 -110 14 -116 6 -6 4
-18 -4 -30 -21 -30 -30 -90 -15 -99 9 -6 11 -3 6 8 -3 10 -2 17 3 17 5 0 7 8
3 18 -3 9 -2 14 2 9 12 -10 26 25 100 248 339 1014 379 2318 105 3415 -46 182
-158 530 -170 530 -5 0 -7 7 -4 15 8 21 -2 19 -11 -2z"/>
<path d="M10445 4375 c-33 -13 -72 -26 -86 -29 -25 -5 -79 -51 -79 -67 0 -28
61 -51 75 -29 9 15 67 11 89 -5 34 -26 41 -16 12 14 -16 16 -25 34 -22 40 4 5
31 15 61 22 56 12 59 17 49 57 -8 28 -23 27 -99 -3z"/>
<path d="M1060 4340 c-8 -4 -35 -14 -60 -21 -25 -8 -55 -23 -67 -35 -19 -19
-21 -27 -13 -56 6 -18 10 -50 10 -70 0 -27 6 -41 22 -52 18 -13 19 -16 5 -16
-13 0 -17 -8 -17 -32 l1 -33 13 30 c13 28 14 25 17 -58 2 -49 1 -91 -2 -93 -3
-2 -25 4 -48 13 -50 20 -62 11 -32 -21 13 -14 21 -32 18 -43 -4 -14 -5 -13 -6
5 -2 35 -29 39 -59 9 -21 -21 -24 -29 -14 -39 9 -9 12 -8 12 5 0 10 8 17 18
17 30 0 33 -12 10 -31 -17 -15 -18 -21 -8 -34 17 -21 50 -19 51 3 0 11 2 12 6
4 3 -7 -11 -34 -31 -59 -20 -25 -36 -49 -36 -53 0 -15 52 -50 75 -50 14 0 25
-3 26 -7 4 -67 7 -90 10 -103 6 -22 -71 -25 -127 -6 -34 11 -46 12 -49 3 -2
-7 -8 -27 -14 -46 -18 -55 -15 -60 27 -56 20 1 47 3 59 4 12 1 24 10 28 21 8
25 53 27 101 4 38 -18 111 -14 124 6 5 9 9 9 14 1 8 -12 42 -15 49 -3 3 4 -5
19 -17 34 l-22 28 -57 -20 c-75 -27 -83 -25 -91 11 -15 75 5 129 46 129 13 0
18 8 18 25 0 14 6 28 13 31 8 3 12 16 9 33 -4 32 17 47 46 32 32 -16 87 -33
119 -38 18 -3 37 -11 43 -18 9 -11 -2 -15 -61 -21 -51 -5 -67 -9 -55 -16 31
-17 16 -26 -21 -12 -77 27 -79 16 -11 -71 24 -30 51 -54 60 -54 10 -1 19 -13
23 -31 11 -51 22 -42 17 13 -3 29 -10 56 -16 60 -7 6 -5 7 6 4 11 -4 20 3 28
24 7 16 22 35 34 41 20 11 20 11 1 18 -12 4 -1 7 30 8 59 1 98 -12 144 -49 19
-16 39 -25 44 -22 6 3 7 2 4 -4 -3 -5 3 -22 14 -39 10 -16 19 -37 19 -46 0
-10 4 -18 9 -18 6 0 6 12 0 32 -5 17 -8 33 -6 34 1 1 103 9 227 19 124 9 236
18 249 21 l24 5 -31 29 c-18 16 -32 32 -32 36 0 4 8 0 18 -9 10 -10 21 -14 25
-11 11 12 -13 44 -33 44 -10 0 -22 5 -25 11 -5 7 4 9 25 7 19 -2 35 2 37 9 3
8 -9 11 -37 10 -34 -1 -42 -5 -47 -26 -3 -13 -1 -32 6 -43 6 -10 7 -18 3 -18
-12 0 -42 34 -42 48 0 7 -4 12 -10 12 -5 0 -10 7 -10 15 0 9 -9 15 -22 15 -26
0 -388 -27 -465 -35 -51 -5 -53 -4 -53 20 0 14 5 25 11 25 5 0 7 5 4 10 -3 6
-29 10 -57 10 -35 0 -57 6 -76 21 -17 13 -34 18 -49 14 l-24 -6 20 38 c10 21
30 49 44 61 14 13 31 37 37 53 7 16 16 29 20 29 15 0 19 41 4 47 -12 4 -13 18
-8 67 4 33 13 76 20 95 19 46 17 85 -4 104 -10 10 -22 17 -26 17 -4 0 -19 9
-33 20 -19 15 -35 19 -58 14 -24 -4 -34 -2 -38 10 -7 17 -51 21 -77 6z"/>
<path d="M2966 4292 c-2 -4 -7 -25 -11 -46 -6 -29 -5 -37 4 -31 9 5 10 -3 5
-31 l-7 -38 26 17 c38 24 47 21 14 -6 l-27 -22 17 -35 c18 -34 20 -35 88 -40
61 -4 84 -13 183 -64 93 -49 115 -57 123 -45 14 23 10 39 -9 39 -31 0 -112 58
-112 79 0 20 -52 79 -100 113 -14 11 -32 15 -47 12 -17 -5 -23 -2 -23 11 0 18
-28 49 -72 79 -24 17 -44 20 -52 8z"/>
<path d="M10610 4233 c-26 -10 -60 -46 -60 -64 0 -21 176 -289 190 -289 5 0
10 -6 10 -12 1 -7 20 -35 44 -63 l44 -49 16 38 c8 20 24 50 35 65 l20 28 -38
21 c-39 22 -52 42 -70 109 -7 27 -22 50 -40 63 -16 11 -32 33 -36 49 -5 23
-85 113 -97 110 -2 0 -10 -3 -18 -6z"/>
<path d="M11957 4118 c25 -24 52 -58 60 -75 8 -21 20 -33 32 -33 35 0 40 -22
40 -158 0 -72 3 -137 7 -143 12 -20 27 20 34 96 5 52 14 82 33 111 52 78 42
144 -22 144 -58 0 -97 12 -107 33 -9 20 -86 66 -111 67 -7 0 8 -19 34 -42z"/>
<path d="M4145 4083 c-35 -5 -67 -31 -58 -46 3 -6 1 -7 -6 -3 -9 6 -9 11 0 22
9 11 7 14 -13 14 -22 0 -25 -4 -20 -25 2 -14 14 -33 26 -43 33 -27 56 -76 60
-129 3 -26 10 -71 16 -100 l11 -51 57 -10 c38 -6 106 -6 202 2 170 13 158 -7
99 174 -63 193 -60 188 -115 196 -50 6 -209 6 -259 -1z"/>
<path d="M11691 4048 c-41 -104 -50 -118 -78 -118 -15 0 -37 7 -47 15 -11 8
-33 15 -50 15 -16 0 -37 7 -47 16 -24 21 -37 11 -44 -34 -11 -63 -16 -72 -36
-72 -13 0 -19 -7 -19 -21 0 -12 -10 -38 -22 -58 -19 -30 -22 -48 -21 -109 3
-76 6 -81 76 -139 8 -7 17 -18 19 -25 4 -11 10 -10 31 1 24 13 29 12 47 -4 12
-10 18 -25 16 -32 -3 -8 2 -13 15 -13 11 0 63 -20 117 -44 107 -48 171 -71
179 -63 2 3 -6 12 -19 20 -12 7 -35 21 -50 30 -19 12 -27 25 -25 39 1 15 -4
23 -18 26 -11 2 -39 21 -61 42 -38 35 -46 38 -83 33 -36 -5 -46 -2 -72 22 -22
22 -29 38 -29 66 0 34 3 39 36 49 32 11 38 10 58 -9 26 -24 36 -26 36 -8 0 7
20 34 45 61 l46 48 27 -30 c15 -16 42 -36 59 -46 29 -15 31 -19 22 -42 -13
-37 -6 -40 24 -10 26 26 57 26 57 0 0 -20 23 -17 43 6 25 29 22 33 -23 27 -40
-5 -40 -5 -40 29 0 45 20 83 59 112 40 29 42 68 5 83 -21 7 -31 6 -45 -7 -11
-10 -22 -14 -26 -11 -3 4 -11 3 -17 -3 -8 -5 -38 -1 -84 13 l-73 22 4 35 c2
19 11 52 21 73 9 21 12 37 6 37 -6 0 -14 -10 -19 -22z"/>
<path d="M12625 3899 c-27 -33 -65 -101 -65 -118 0 -11 72 -62 130 -91 l38
-19 5 -83 c8 -127 20 -175 52 -208 16 -16 37 -33 48 -36 10 -3 35 -17 54 -30
23 -16 48 -23 72 -23 32 2 33 2 7 6 -16 3 -36 11 -44 19 -13 13 -12 17 3 34
17 19 17 20 -20 17 -36 -2 -39 0 -71 58 -39 70 -42 85 -13 92 76 20 262 130
341 201 33 30 38 40 38 77 0 41 -26 105 -42 105 -5 0 -8 4 -8 10 0 5 8 7 18 4
13 -4 14 -3 4 4 -31 22 -148 -22 -250 -95 l-47 -33 -40 39 c-52 50 -133 101
-161 101 -13 0 -34 -14 -49 -31z"/>
<path d="M9045 3820 c-3 -6 -3 -35 0 -65 7 -54 8 -55 48 -66 22 -6 46 -17 54
-25 8 -8 21 -14 29 -14 31 0 47 -68 40 -171 -8 -135 -22 -201 -46 -219 -62
-47 -57 -27 -48 -235 4 -104 13 -207 18 -227 13 -48 75 -94 146 -108 101 -21
317 31 490 118 l80 40 57 -41 c31 -23 84 -58 117 -77 34 -18 104 -74 156 -123
103 -96 176 -147 209 -147 12 0 36 -11 55 -25 40 -29 82 -32 180 -10 36 8 101
14 146 15 78 0 83 -1 135 -38 30 -22 86 -58 126 -81 l71 -42 104 12 c56 6 121
16 143 22 l40 11 -60 7 c-37 5 -75 3 -98 -4 -29 -8 -43 -8 -58 1 -10 7 -27 12
-38 12 -10 0 -24 7 -31 15 -7 8 -49 33 -94 56 -44 22 -104 55 -131 74 -46 30
-147 65 -190 65 -10 0 -49 12 -88 27 -51 20 -78 38 -100 65 -17 21 -37 38 -45
38 -8 0 -41 27 -73 60 -53 53 -348 260 -371 260 -5 0 -24 11 -41 24 -85 63
-285 135 -447 161 -308 47 -281 27 -274 207 3 73 2 159 -4 191 -7 47 -7 57 5
57 8 0 69 -14 136 -31 143 -37 229 -50 224 -35 -5 14 -178 104 -202 105 -11 1
-37 10 -58 21 -20 11 -44 20 -52 20 -20 0 -105 28 -137 45 -14 8 -31 15 -38
15 -6 0 -26 11 -45 26 -21 16 -36 21 -40 14z m430 -799 c39 -11 99 -24 135
-31 72 -12 150 -38 150 -49 0 -4 -53 -33 -117 -64 -175 -84 -290 -105 -402
-71 -29 8 -61 24 -72 35 -25 25 -25 83 1 119 11 16 23 43 27 61 l6 32 101 -6
c56 -4 133 -15 171 -26z"/>
<path d="M2477 3766 c-115 -10 -139 -15 -152 -32 -37 -49 -5 -75 159 -129 124
-41 144 -45 197 -39 33 4 59 9 58 13 0 3 -19 49 -43 101 -31 70 -47 95 -62 96
-10 1 -81 -4 -157 -10z"/>
<path d="M11228 3699 c-32 -18 -80 -99 -103 -175 l-23 -75 22 -27 c13 -15 28
-37 34 -49 8 -14 18 -20 31 -16 18 4 20 14 20 82 -1 76 16 141 45 183 10 13
13 32 9 47 -8 35 -15 41 -35 30z"/>
<path d="M4473 3642 c-29 -2 -53 -6 -53 -9 0 -3 11 -21 25 -39 14 -18 25 -36
25 -40 0 -4 6 -15 14 -23 19 -22 42 -124 50 -229 5 -59 27 -91 98 -145 24 -18
53 -52 66 -77 13 -27 22 -37 22 -25 0 24 -24 151 -57 305 -64 298 -62 291
-107 287 -17 -1 -55 -3 -83 -5z"/>
<path d="M510 3619 c-129 -9 -241 -18 -247 -18 -9 -1 -13 -23 -13 -76 0 -65 2
-75 18 -75 36 0 428 31 450 36 27 5 45 43 29 62 -7 9 -6 20 2 38 13 28 15 55
4 53 -5 -1 -114 -10 -243 -20z"/>
<path d="M3705 3563 c-8 -26 -35 -31 -35 -8 0 8 -4 15 -9 15 -5 0 -8 -8 -7
-17 0 -10 -7 -19 -16 -21 -13 -2 -18 3 -19 20 l0 23 -9 -22 c-11 -27 -40 -31
-40 -5 0 14 -2 15 -10 2 -8 -12 -13 -13 -30 -2 -18 11 -100 9 -170 -4 -8 -1
-25 -3 -36 -3 -13 -1 -24 -9 -27 -20 -5 -20 -106 -73 -163 -85 -53 -12 -83 34
-47 70 13 13 14 16 3 12 -26 -8 -159 -172 -160 -195 0 -13 -5 -23 -12 -23 -9
0 -9 -3 0 -12 7 -7 12 -20 12 -30 0 -24 -37 -24 -43 0 -4 16 -5 16 -6 0 0 -10
-6 -18 -13 -18 -9 0 -9 -3 0 -12 7 -7 12 -20 12 -30 0 -13 -8 -18 -30 -18 -27
0 -30 -3 -30 -30 0 -20 -5 -30 -15 -30 -17 0 -57 -77 -44 -86 17 -10 9 -34
-11 -34 -25 0 -42 -33 -42 -82 1 -27 -4 -38 -14 -38 -8 0 -14 -4 -14 -10 0 -5
7 -10 15 -10 8 0 15 -9 15 -20 0 -25 -25 -26 -39 -2 -9 15 -11 14 -12 -8 -1
-14 0 -35 1 -47 1 -16 -4 -23 -16 -23 -10 0 -15 -2 -13 -5 5 -4 676 72 694 79
6 3 2 5 -7 5 -11 1 -18 9 -18 21 0 24 8 25 32 3 16 -14 18 -14 18 0 0 8 6 18
13 21 10 5 10 7 0 12 -20 9 -16 46 5 42 25 -4 41 9 35 31 -7 28 26 36 37 8 l9
-22 0 23 c1 27 38 31 43 5 3 -13 6 -10 10 10 5 24 3 27 -23 27 -22 0 -29 5
-29 20 0 13 7 20 20 20 11 0 20 -5 20 -11 0 -5 4 -8 9 -4 6 3 18 -3 28 -14 19
-19 20 -19 148 -7 93 9 125 16 125 27 0 6 9 8 20 4 14 -4 20 -2 20 9 0 23 -50
76 -71 76 -14 0 -19 7 -19 27 0 14 -7 35 -17 45 -15 17 -14 19 10 42 21 19 27
35 27 66 0 28 -4 39 -11 34 -16 -9 -29 15 -29 54 0 28 -3 32 -19 27 -10 -3
-29 -2 -42 3 l-23 9 29 14 c15 8 33 23 39 34 6 11 16 23 21 28 7 4 6 10 -1 15
-7 4 -14 16 -17 27 -5 19 -5 19 -12 -2z m-655 -278 c0 3 8 1 18 -4 12 -7 19
-22 20 -46 1 -32 -1 -36 -21 -33 -29 3 -48 -9 -40 -28 5 -12 7 -12 18 2 15 22
48 11 43 -13 -3 -13 -12 -17 -31 -16 -18 1 -27 -3 -27 -13 0 -8 10 -14 24 -14
13 0 26 -7 30 -15 3 -9 0 -15 -9 -15 -8 0 -15 -4 -15 -10 0 -5 5 -10 11 -10 6
0 9 -19 7 -47 l-3 -48 -42 -3 c-41 -3 -43 -2 -43 26 0 26 -3 29 -25 24 -20 -3
-25 0 -25 17 0 13 7 21 18 22 16 1 16 2 0 6 -13 3 -18 14 -18 37 0 30 -2 33
-25 28 -20 -3 -25 0 -25 17 0 11 3 20 8 20 31 -5 42 3 42 31 0 23 4 30 20 30
12 0 20 -7 21 -17 1 -17 2 -17 6 0 4 17 9 19 45 21 10 1 18 5 18 11 0 5 -14 8
-30 7 -26 -3 -30 0 -30 21 0 33 10 39 37 22 13 -9 23 -13 23 -10z m89 -52 c6
-10 11 -12 11 -5 0 6 8 12 19 12 13 0 18 -7 17 -22 -1 -17 4 -22 17 -20 10 2
25 -2 33 -9 10 -8 14 -8 14 0 0 6 9 11 21 11 15 0 20 -5 17 -22 -2 -18 3 -24
22 -27 14 -1 29 -8 33 -15 6 -8 10 -8 14 2 6 16 23 15 23 -2 0 -19 -70 -32
-81 -14 -7 10 -9 10 -9 1 0 -7 -10 -13 -21 -13 -17 0 -20 5 -17 25 4 19 1 25
-13 25 -17 0 -17 -3 -7 -20 16 -25 5 -35 -44 -44 -27 -5 -38 -3 -38 6 0 9 -3
9 -12 0 -28 -28 -36 -12 -37 68 -1 64 2 80 13 80 8 0 20 -8 25 -17z"/>
<path d="M2551 3464 c-2 -31 -30 -39 -41 -11 l-9 22 0 -22 c-1 -17 -7 -23 -25
-23 -18 0 -26 7 -29 23 l-4 22 -2 -22 c-1 -15 -7 -23 -20 -23 -10 0 -32 -3
-49 -6 -26 -5 -31 -3 -35 17 -4 24 -4 24 -6 2 -1 -29 -47 -33 -54 -5 -4 13 -5
12 -6 -5 -1 -19 -7 -21 -51 -21 -39 -1 -50 3 -50 15 0 9 -3 14 -6 10 -4 -3 -6
-27 -6 -52 1 -39 -2 -45 -19 -45 -28 0 -37 30 -14 46 10 8 13 14 7 14 -7 0
-17 10 -22 23 l-9 22 0 -22 c-1 -17 -7 -23 -25 -23 -15 0 -26 7 -29 18 -4 13
-5 13 -6 -4 -1 -19 -7 -22 -51 -22 -30 0 -50 5 -50 12 0 6 -5 3 -11 -6 -15
-26 -47 -23 -52 5 l-4 22 -2 -22 c-1 -29 -47 -33 -54 -5 -4 13 -5 11 -6 -5 -1
-16 -7 -23 -21 -23 -12 0 -24 10 -30 23 l-9 22 0 -22 c-1 -17 -7 -23 -25 -23
-15 0 -26 7 -29 18 -4 13 -5 11 -6 -5 -1 -16 -7 -23 -21 -23 -12 0 -24 10 -30
23 l-9 22 0 -22 c-1 -17 -7 -23 -25 -23 -18 0 -26 7 -29 23 -4 19 -4 18 -6 -5
-1 -21 -6 -28 -21 -28 -13 0 -20 7 -20 20 0 24 -4 25 -36 4 -13 -9 -27 -14
-31 -10 -3 3 -12 1 -18 -4 -12 -10 -43 -6 -112 15 -14 5 -23 3 -23 -4 0 -6 5
-11 10 -11 6 0 10 -7 10 -15 0 -9 -9 -15 -25 -15 -19 0 -25 5 -25 21 0 17 -3
19 -14 10 -9 -8 -16 -8 -20 -2 -6 9 -131 9 -140 0 -8 -7 44 -60 53 -55 17 11
39 -5 34 -25 -6 -21 -33 -27 -33 -6 0 6 -5 4 -11 -5 -5 -10 -19 -18 -30 -18
-17 0 -20 5 -17 33 3 31 2 32 -35 29 -33 -3 -37 -1 -38 20 -1 20 -2 21 -6 3
-10 -37 -53 -49 -53 -15 0 11 -4 20 -9 20 -5 0 -7 -9 -4 -20 8 -30 -43 -28
-53 3 l-8 22 -6 -25 c-8 -33 -44 -34 -48 -2 -3 19 -9 22 -46 22 -43 0 -70 -13
-79 -40 -4 -12 -6 -11 -6 3 -1 24 -21 22 -21 -3 0 -13 -7 -20 -20 -20 -11 0
-20 6 -20 14 0 8 -4 18 -10 21 -6 4 -9 -4 -7 -17 3 -33 -36 -37 -51 -6 -7 16
-11 18 -11 7 -1 -9 -8 -22 -16 -29 -19 -16 -19 -46 -1 -53 20 -8 26 -66 8 -76
-12 -7 -12 -9 2 -14 9 -4 16 -16 16 -27 0 -15 -7 -20 -25 -20 -24 0 -31 12
-26 49 2 7 -3 10 -9 6 -6 -4 -10 -19 -8 -33 2 -22 -2 -28 -20 -30 -12 -2 -22
1 -22 6 0 6 -3 17 -6 25 -3 10 2 17 13 20 16 4 16 5 1 6 -24 1 -24 40 0 57 15
12 15 13 1 14 -20 0 -34 29 -20 43 20 20 46 2 52 -38 5 -34 6 -31 6 21 1 34
-3 67 -9 75 -6 10 -8 7 -6 -11 2 -21 -2 -26 -25 -28 -22 -3 -27 1 -28 20 -1
20 -2 21 -6 3 -11 -42 -47 -46 -61 -7 l-10 27 -1 -27 c-1 -22 -6 -28 -24 -28
-16 0 -27 9 -34 28 l-12 27 2 -30 c2 -25 -2 -30 -28 -36 l-30 -7 33 -1 c28 -1
32 -5 32 -27 0 -24 -3 -26 -31 -22 l-31 5 5 -139 c3 -77 8 -142 11 -145 11
-11 6 -41 -6 -47 -10 -5 -10 -7 0 -12 15 -7 16 -40 1 -50 -8 -5 -6 -10 5 -16
21 -12 21 -45 -1 -51 -17 -4 -17 -5 0 -6 11 -1 17 -9 17 -26 0 -17 -6 -25 -17
-26 -14 0 -13 -2 5 -9 28 -12 30 -50 2 -50 -11 0 -20 -4 -20 -10 0 -5 9 -10
20 -10 28 0 26 -37 -2 -46 l-23 -8 25 -6 c36 -9 38 -37 3 -43 -15 -3 13 -3 62
0 90 5 91 4 105 -21 7 -14 17 -26 22 -26 5 0 4 -8 -1 -18 -8 -15 5 -39 65
-124 41 -58 74 -111 74 -117 0 -6 8 -11 18 -11 20 0 92 -81 92 -102 0 -8 12
-30 26 -49 44 -57 74 -131 74 -179 0 -46 -40 -131 -74 -159 -16 -14 -22 -41
-8 -41 4 0 22 9 40 20 41 25 42 25 42 -5 0 -30 16 -32 50 -5 36 28 61 25 121
-16 75 -51 98 -73 121 -118 26 -51 19 -138 -15 -174 -22 -23 -22 -24 -2 -38
31 -23 58 -13 78 29 23 46 49 48 105 7 80 -57 90 -120 31 -193 -38 -47 -28
-65 10 -19 28 33 54 36 65 6 8 -22 32 -16 44 11 12 27 31 32 50 13 8 -8 5 -19
-15 -42 -20 -24 -23 -32 -11 -34 8 -2 21 -15 27 -30 7 -15 40 -70 74 -122 34
-52 78 -124 97 -160 115 -206 153 -276 208 -380 33 -64 72 -134 87 -155 14
-22 51 -84 82 -137 55 -98 55 -98 94 -98 21 0 39 3 39 6 0 5 -43 83 -145 264
-64 112 -185 343 -182 346 3 3 209 -314 272 -418 28 -46 67 -109 88 -141 36
-53 41 -57 78 -57 21 0 39 3 39 6 0 4 -15 27 -33 53 -18 25 -60 93 -92 151
-32 58 -82 141 -110 185 -130 199 -210 318 -285 425 -45 63 -108 155 -141 203
-60 87 -60 89 -42 110 10 12 18 23 19 25 4 9 55 -24 60 -40 6 -19 6 -19 20 1
14 19 17 20 38 6 13 -9 30 -13 38 -10 11 4 17 -3 22 -26 5 -25 9 -29 20 -20
18 15 38 6 57 -24 14 -23 16 -24 43 -10 15 8 38 15 51 15 24 0 55 36 89 102
l19 37 -31 38 c-16 21 -42 49 -56 62 -14 14 -26 28 -26 33 0 12 38 -10 90 -52
72 -59 114 -78 174 -81 45 -2 62 2 93 23 21 14 51 29 67 32 39 9 26 18 -31 21
-35 1 -50 7 -61 23 -8 12 -20 22 -26 22 -18 0 -86 60 -86 75 0 16 -30 35 -54
35 -18 0 -88 46 -99 65 -4 8 -23 17 -42 21 -19 3 -32 10 -29 15 9 16 -24 22
-57 10 -21 -7 -37 -7 -50 0 -29 15 -23 35 14 46 l32 10 -49 8 c-42 7 -50 12
-62 41 -8 19 -18 34 -23 34 -6 0 -13 9 -16 20 -3 11 -12 20 -20 20 -7 0 -16
11 -19 24 -3 14 -16 28 -29 32 -12 4 -28 15 -35 26 -17 23 -86 68 -106 68 -14
0 -46 12 -113 43 -12 5 -37 11 -55 12 -18 0 -44 4 -58 8 -14 4 -54 9 -90 11
-73 4 -267 39 -350 63 -112 32 -151 126 -89 214 33 47 72 57 194 53 103 -3
167 -9 218 -20 12 -3 49 -6 82 -8 39 -2 93 -16 152 -39 114 -45 396 -118 408
-106 2 2 7 47 11 99 6 87 6 94 -9 81 -14 -11 -20 -10 -44 8 -14 12 -35 36 -46
54 -11 18 -35 48 -54 67 -30 31 -34 39 -29 73 4 23 2 37 -4 37 -12 0 -116 105
-187 188 -36 42 -44 57 -39 78 5 17 3 25 -6 23 -27 -3 -38 1 -38 16 0 9 -9 15
-25 15 -14 0 -25 -4 -25 -9 0 -6 21 -38 48 -73 61 -81 235 -336 254 -374 8
-16 25 -45 37 -66 31 -50 11 -56 -32 -9 -20 22 -45 45 -56 51 -12 6 -21 15
-21 20 0 5 -10 20 -22 33 -13 14 -34 41 -48 61 -14 21 -46 63 -72 94 -26 31
-50 70 -54 87 -8 39 -48 119 -73 146 -18 19 -52 32 -126 45 -16 3 -42 12 -57
20 -16 8 -28 12 -28 9 0 -3 -11 2 -25 11 -13 8 -29 13 -34 10 -5 -4 -12 -2
-16 4 -3 5 -15 10 -25 10 -24 0 -91 -36 -108 -58 -7 -9 -22 -28 -34 -42 -20
-23 -21 -26 -6 -67 15 -41 15 -44 -2 -53 -10 -6 -26 -10 -34 -10 -17 0 -17 -1
-19 126 -2 91 -18 111 -79 108 -24 -2 -53 -3 -65 -3 -14 -1 -23 -8 -25 -23 -4
-30 -26 -34 -38 -6 -6 13 -23 29 -38 36 -40 19 -58 35 -66 60 -6 18 -4 22 15
22 12 0 28 -8 35 -17 12 -17 13 -16 14 5 0 12 5 22 10 22 6 0 10 -4 10 -10 0
-17 14 -12 98 36 45 25 105 52 134 60 99 26 217 13 308 -35 22 -11 40 -17 40
-12 0 4 -12 13 -26 20 -35 15 -23 27 13 13 15 -6 39 -13 53 -15 14 -1 34 -8
45 -14 42 -23 95 -15 95 14 0 8 5 11 10 8 6 -4 10 -16 8 -27 -2 -16 5 -24 32
-34 19 -7 47 -13 63 -13 15 -1 27 -5 27 -10 0 -5 13 -12 30 -16 16 -4 32 -11
35 -16 10 -16 25 -10 22 9 -5 30 -16 39 -42 34 -14 -2 -25 0 -25 4 1 22 18 32
58 32 38 1 42 -2 42 -24 0 -17 6 -24 19 -24 23 0 54 -28 46 -41 -4 -5 5 -9 19
-9 26 0 52 -32 41 -51 -4 -6 3 -7 20 -3 19 5 30 1 40 -12 13 -18 14 -18 15 -1
0 25 40 23 40 -2 0 -16 -10 -21 -47 -27 -32 -5 -48 -3 -51 4 -2 8 -9 6 -19 -4
-14 -13 -14 -17 -2 -24 8 -6 18 -5 23 0 25 25 58 -9 36 -35 -14 -17 7 -25 37
-14 17 6 23 4 28 -10 3 -11 4 -25 3 -32 -2 -9 6 -13 24 -11 20 3 27 -2 30 -18
2 -11 6 -21 11 -20 4 0 26 0 49 0 23 0 38 3 35 7 -4 3 -22 6 -41 5 -26 -1 -35
3 -39 18 -3 12 1 21 12 23 9 3 -3 5 -25 6 -41 1 -62 20 -48 42 3 5 -8 9 -24 9
-29 0 -48 22 -36 41 8 14 25 11 46 -8 17 -15 18 -15 18 0 0 11 8 17 21 17 18
0 21 -4 16 -30 -6 -28 12 -57 21 -32 2 7 13 12 24 12 17 0 20 -5 16 -30 -5
-35 6 -47 27 -30 18 15 35 5 35 -21 0 -10 5 -19 11 -19 5 0 9 10 7 22 -2 15 3
24 15 26 12 2 17 -3 17 -17 0 -17 6 -21 33 -21 47 0 449 48 455 55 3 3 -2 5
-12 5 -26 0 -15 34 12 38 15 2 22 10 22 26 0 12 5 27 11 33 8 8 8 17 0 31 -9
17 -7 21 12 26 l22 7 -23 9 c-31 13 -22 36 12 33 21 -1 26 3 26 20 0 12 12 40
27 62 19 28 27 51 26 77 -2 30 2 37 20 41 l22 4 -22 2 c-16 1 -20 6 -16 21 7
25 33 27 33 3 1 -17 2 -17 15 0 9 12 11 31 8 54 -6 34 -5 36 20 31 25 -5 27
-3 28 31 2 81 0 123 -5 128 -3 4 -6 -1 -6 -10 0 -8 -8 -18 -17 -20 -17 -4 -17
-5 0 -6 26 -2 23 -51 -3 -51 -17 0 -20 7 -20 43 0 23 -4 48 -9 55 -4 7 -7 -25
-6 -73 2 -71 0 -85 -13 -85 -13 0 -13 -2 2 -13 22 -16 11 -47 -16 -47 -17 0
-20 5 -15 28 2 15 1 36 -3 47 -8 19 -9 19 -9 -2 -1 -28 -37 -32 -44 -5 -4 16
-5 16 -6 0 0 -10 -6 -18 -13 -18 -9 0 -9 -3 0 -12 22 -22 14 -48 -14 -48 -23
0 -26 3 -21 28 2 15 1 36 -3 47 -8 19 -9 19 -9 -2 -1 -25 -35 -33 -44 -10 -4
10 -6 10 -6 0 -1 -7 -12 -13 -25 -13 -13 0 -27 6 -29 13 -3 7 -6 5 -6 -5 -1
-20 -41 -25 -41 -5 0 8 -4 7 -10 -3 -16 -25 -12 -30 20 -23 25 5 30 2 30 -15
0 -11 -7 -23 -16 -26 -22 -8 -22 -8 -27 12 -4 16 -5 16 -6 0 -1 -12 -9 -18
-24 -18 -24 0 -24 2 -25 110 0 100 1 110 18 110 10 0 21 -6 23 -12 4 -10 6
-10 6 0 1 6 12 12 25 12 18 0 26 -7 29 -22 4 -20 4 -19 6 5 1 34 37 38 51 5 9
-23 9 -23 9 -2 1 12 8 25 17 28 23 9 24 8 24 -16 0 -23 1 -23 13 2 7 14 10 27
6 30 -4 3 -9 14 -12 25 -4 19 -5 19 -6 -1z m109 -315 c0 -34 -6 -46 -37 -74
-44 -40 -48 -41 -62 -17 -9 15 -10 15 -11 -5 0 -16 -6 -23 -20 -23 -25 0 -26
25 -2 40 16 10 16 10 0 20 -25 15 -22 29 7 36 23 6 29 17 28 52 -1 8 15 12 48
12 l49 0 0 -41z m-1763 -4 c8 -22 6 -23 -83 -41 -43 -9 -108 -31 -144 -49 -36
-18 -79 -36 -96 -39 -27 -6 -32 -4 -37 14 -7 26 18 38 44 21 16 -9 19 -8 20 6
2 26 2 26 -5 49 -5 16 -2 23 13 27 11 2 24 0 31 -7 8 -8 13 -7 19 3 6 9 18 12
32 8 13 -3 29 -1 37 5 10 9 19 9 35 -1 15 -10 22 -11 25 -2 5 14 42 15 42 1 0
-5 7 -10 15 -10 9 0 12 6 9 15 -4 10 0 15 15 15 12 0 24 -7 28 -15z m-381
-246 c4 -6 -12 -28 -37 -49 l-44 -38 -6 27 c-5 24 -8 22 -32 -29 -21 -45 -27
-74 -31 -155 -2 -55 -5 -101 -5 -102 -3 -8 -51 -2 -51 6 0 5 -3 16 -6 25 -5
12 1 16 22 17 29 1 29 1 4 8 -29 8 -42 51 -16 51 9 0 16 5 16 11 0 6 -6 9 -14
6 -9 -4 -16 3 -18 18 -4 19 0 24 26 31 l31 8 -32 3 c-48 6 -42 53 7 53 5 0 10
-8 12 -17 3 -14 8 -11 21 14 15 27 15 32 2 27 -10 -4 -15 0 -15 15 0 12 6 21
13 22 31 2 52 9 55 19 2 5 8 8 13 4 5 -3 21 4 35 15 30 24 40 26 50 10z"/>
<path d="M10776 3121 c-10 -4 -25 -26 -32 -48 -13 -38 -12 -47 7 -97 11 -31
35 -77 53 -103 32 -46 35 -48 81 -47 40 0 52 5 72 30 61 74 61 74 129 74 56 0
79 -7 177 -51 234 -107 262 -121 269 -132 5 -8 8 -7 8 4 0 9 -7 19 -15 23 -8
3 -15 10 -15 15 0 6 7 8 16 4 15 -5 15 -3 0 25 -22 42 -50 67 -117 104 -50 28
-89 72 -89 101 0 23 -21 87 -28 87 -4 0 -14 -4 -22 -10 -12 -7 -12 -12 -1 -34
12 -22 12 -29 -3 -51 -29 -44 -127 -29 -192 30 -21 19 -42 35 -48 35 -5 0 -17
6 -25 14 -34 29 -176 46 -225 27z"/>
<path d="M5365 3058 c-2 -7 -9 -47 -15 -88 -6 -41 -14 -83 -16 -92 -4 -14 1
-18 19 -18 22 0 26 6 31 48 13 88 15 89 55 20 25 -43 44 -64 58 -66 24 -4 25
-3 43 102 15 88 13 106 -9 106 -16 0 -21 -10 -27 -47 -13 -88 -16 -89 -57 -18
-27 46 -43 65 -58 65 -11 0 -21 -6 -24 -12z"/>
<path d="M5746 3062 c-4 -7 -36 -177 -36 -194 0 -5 9 -8 20 -8 14 0 21 9 26
38 18 105 16 105 60 29 30 -52 43 -67 59 -65 17 3 22 17 36 101 16 98 16 98
-5 95 -17 -2 -22 -14 -31 -63 l-11 -60 -28 45 c-15 25 -35 55 -42 68 -14 22
-38 29 -48 14z"/>
<path d="M6202 2993 c-6 -38 -14 -83 -18 -100 l-6 -33 76 0 c66 0 76 2 76 18
0 14 -8 17 -43 16 -50 -1 -67 10 -60 36 4 16 14 20 53 20 33 0 50 5 54 15 4
12 -4 15 -44 15 -47 0 -50 2 -50 25 0 24 3 25 54 25 39 0 55 4 60 15 4 12 -7
15 -68 15 l-73 0 -11 -67z"/>
<path d="M6435 3048 c-2 -7 -10 -52 -18 -100 -13 -82 -13 -88 3 -88 13 0 19
14 26 62 5 34 14 63 20 65 5 2 25 -24 44 -57 36 -64 66 -79 74 -37 6 29 26
152 26 160 0 4 -6 7 -14 7 -9 0 -17 -16 -21 -42 -15 -97 -22 -99 -67 -18 -31
58 -63 78 -73 48z"/>
<path d="M12355 3022 c-16 -8 -32 -20 -34 -25 -2 -6 -20 -26 -40 -44 l-36 -33
32 -31 c31 -31 32 -32 57 -16 13 9 27 26 31 37 3 11 12 20 18 21 7 0 25 16 40
35 22 26 25 34 13 34 -9 0 -21 9 -28 20 -15 23 -13 23 -53 2z"/>
<path d="M3752 2979 c-24 -4 -68 -10 -100 -13 -42 -4 -61 -10 -74 -27 -10 -11
-18 -16 -18 -9 0 18 -54 8 -58 -12 -2 -9 7 -26 20 -38 20 -19 30 -21 83 -15
33 4 69 12 79 17 31 16 246 58 263 51 18 -7 12 6 -16 39 -17 20 -99 23 -179 7z"/>
<path d="M5396 2750 c-82 -41 -128 -111 -130 -195 0 -59 23 -104 68 -131 26
-16 58 -20 198 -24 155 -5 169 -7 189 -27 20 -19 21 -25 9 -52 -18 -46 -53
-51 -286 -44 l-203 6 -6 -24 c-3 -13 -9 -45 -14 -71 l-8 -48 241 0 c232 0 243
1 292 24 84 39 134 118 134 213 0 51 -33 100 -85 130 -36 20 -54 23 -170 23
-172 0 -204 6 -211 37 -4 16 0 31 11 43 17 19 32 20 250 20 l233 0 5 23 c3 12
9 43 12 70 l7 47 -248 0 c-227 -1 -252 -3 -288 -20z"/>
<path d="M10975 2660 c10 -11 41 -34 69 -52 28 -17 70 -47 93 -65 43 -34 108
-58 193 -72 42 -6 48 -4 93 33 33 26 57 57 73 94 26 60 26 85 -1 29 -9 -20
-32 -43 -57 -57 -36 -20 -49 -22 -117 -17 -88 7 -120 17 -252 81 -107 51 -120
55 -94 26z"/>
<path d="M3157 2625 c-25 -19 -52 -35 -59 -35 -7 0 -23 -15 -35 -33 -19 -26
-23 -28 -23 -12 0 14 -13 25 -43 38 -64 26 -115 22 -170 -13 -26 -16 -51 -30
-55 -30 -15 0 -120 -108 -154 -157 -20 -29 -39 -49 -42 -45 -4 3 -4 -2 0 -12
5 -13 4 -17 -4 -12 -8 5 -10 2 -6 -8 9 -23 11 -21 34 24 38 75 168 193 256
231 53 24 141 22 154 -2 5 -8 18 -25 30 -39 25 -28 21 -68 -10 -131 -30 -57
-63 -92 -145 -148 -126 -88 -225 -111 -295 -71 l-35 21 34 -32 c33 -30 37 -31
102 -27 57 4 81 12 145 49 156 89 221 170 231 288 6 69 7 71 51 108 75 62 97
82 91 83 -3 0 -27 -16 -52 -35z"/>
<path d="M5985 2568 c-27 -153 -105 -571 -111 -600 l-6 -28 70 0 69 0 13 78
c22 130 13 122 137 122 98 0 114 3 168 29 58 27 128 91 156 142 7 13 18 46 24
74 24 105 -18 205 -105 251 -42 23 -55 24 -221 24 l-177 0 -17 -92z m361 -60
c39 -38 44 -110 12 -158 -45 -66 -78 -80 -189 -80 -73 0 -99 3 -99 13 0 24 40
239 46 249 4 6 46 8 105 6 91 -3 101 -5 125 -30z"/>
<path d="M6845 2650 c-99 -18 -192 -85 -240 -171 -26 -47 -30 -64 -30 -136 0
-74 3 -85 30 -124 19 -27 51 -54 85 -72 49 -26 63 -28 125 -25 40 3 90 14 117
25 57 26 131 93 163 148 32 54 51 141 35 160 -6 8 -9 19 -5 24 9 16 -32 101
-49 101 -8 0 -20 9 -26 20 -6 11 -16 17 -22 14 -6 -4 -17 1 -24 10 -7 10 -30
22 -51 27 -43 10 -51 10 -108 -1z m95 -135 c81 -42 81 -150 1 -218 -83 -69
-192 -55 -227 30 -27 65 14 149 90 184 50 23 97 24 136 4z"/>
<path d="M7223 2400 c3 -11 0 -26 -7 -33 -11 -11 -46 -172 -46 -210 0 -14 11
-17 64 -17 l64 0 7 48 c3 26 9 57 12 70 6 27 -23 32 -30 5 -3 -10 -6 0 -7 22
-2 59 -9 87 -25 112 -19 28 -39 30 -32 3z"/>
<path d="M12685 2274 c-269 -65 -703 -127 -982 -141 -72 -3 -137 -10 -144 -14
-15 -9 183 -310 260 -395 25 -28 54 -63 64 -77 14 -22 22 -25 40 -18 28 11
241 46 403 66 66 9 175 15 243 14 l124 -1 30 78 c16 44 35 104 43 134 26 103
94 381 94 385 0 9 -35 3 -175 -31z"/>
<path d="M10414 1957 l1 -214 30 -9 c53 -16 99 -6 113 24 60 133 119 191 224
223 96 29 213 24 289 -13 30 -15 71 -29 91 -33 21 -3 58 -21 83 -40 25 -19 54
-35 65 -35 11 0 20 -4 20 -8 0 -14 -57 -89 -80 -105 -18 -13 -20 -21 -14 -73
4 -34 14 -68 24 -79 54 -61 112 -229 114 -329 l1 -71 91 -26 c51 -15 116 -30
145 -34 30 -4 65 -14 77 -22 13 -8 26 -12 29 -10 8 9 -74 83 -107 97 -26 11
-33 10 -50 -5 -25 -23 -46 -14 -67 30 -15 31 -15 44 -5 103 6 37 9 77 7 87 -3
11 -11 78 -19 148 -12 113 -17 134 -45 178 -17 28 -34 62 -37 76 -4 13 -23 44
-44 68 -20 24 -47 64 -60 90 -12 25 -44 69 -70 96 l-47 49 -84 0 c-139 0 -516
27 -640 46 l-36 5 1 -214z"/>
<path d="M4000 1991 c0 -6 -32 -46 -70 -91 -73 -85 -92 -115 -104 -164 -8 -33
-62 -173 -96 -249 -11 -26 -18 -52 -15 -57 3 -5 24 -15 45 -21 48 -15 57 -8
101 68 37 64 59 140 59 205 0 68 9 83 108 184 l89 92 -44 21 c-47 22 -73 27
-73 12z"/>
<path d="M4275 1956 c-7 -16 -15 -18 -62 -12 l-53 6 0 -47 c-1 -27 -2 -75 -4
-108 -4 -101 18 -133 85 -123 20 2 28 15 46 68 25 74 26 114 9 185 -10 40 -15
46 -21 31z"/>
<path d="M9146 1806 c-3 -16 -6 -45 -6 -66 l0 -37 113 -16 c61 -10 128 -17
147 -17 l35 0 -84 84 -83 83 -58 -1 c-56 -1 -59 -2 -64 -30z"/>
<path d="M250 913 c0 -485 3 -888 6 -897 6 -14 70 -16 630 -16 343 0 624 3
624 8 0 4 -47 72 -104 152 -56 80 -336 476 -620 880 -285 404 -522 739 -527
745 -5 5 -9 -353 -9 -872z"/>
<path d="M5524 1631 c-96 -44 -133 -164 -80 -255 48 -82 160 -115 244 -72 72
37 113 127 93 204 -11 44 -59 117 -69 107 -3 -3 -14 2 -24 12 -28 25 -114 28
-164 4z m139 -55 c45 -18 67 -56 67 -112 0 -39 -5 -51 -34 -80 -28 -28 -42
-34 -75 -34 -23 0 -56 7 -73 16 -28 14 -29 17 -14 26 9 5 25 7 34 3 16 -6 16
-5 0 11 -15 15 -18 15 -42 -2 -14 -11 -27 -26 -29 -34 -3 -12 -5 -12 -11 2
-12 26 27 73 79 98 25 12 45 23 45 25 0 9 -49 -4 -73 -19 -24 -16 -27 -16 -33
-3 -9 25 25 84 59 101 40 19 59 20 100 2z"/>
<path d="M6035 1629 c-114 -58 -137 -200 -46 -290 73 -74 179 -74 253 -2 45
44 62 90 55 149 -14 125 -151 200 -262 143z m194 -65 c23 -30 27 -54 9 -72 -6
-6 -23 -39 -37 -74 -33 -79 -71 -89 -47 -13 7 20 7 20 -4 0 -11 -20 -80 -65
-99 -65 -14 0 -14 27 -1 32 17 5 -13 57 -35 60 -12 2 -21 12 -23 25 -3 18 10
31 67 68 38 25 73 50 76 55 3 6 21 10 40 10 24 0 39 -7 54 -26z"/>
<path d="M6565 1636 c-51 -22 -103 -88 -110 -141 -14 -88 46 -180 132 -204 51
-14 67 -14 111 4 113 48 155 175 89 274 -46 69 -148 100 -222 67z m107 -55 c6
-10 16 -17 22 -15 22 8 41 -16 43 -53 1 -21 5 -52 8 -69 8 -35 -14 -88 -43
-103 -10 -5 -51 -11 -90 -12 -78 -2 -105 9 -83 34 9 11 9 21 0 40 -9 19 -9 34
0 57 6 18 8 42 5 55 -6 26 18 55 46 55 10 0 20 7 24 15 8 21 54 19 68 -4z"/>
<path d="M7075 1634 c-81 -42 -125 -130 -104 -208 21 -80 73 -127 157 -141 35
-6 52 -2 97 20 70 34 105 88 105 161 0 129 -146 225 -255 168z m155 -72 c66
-67 46 -152 -50 -209 -60 -36 -80 -41 -80 -18 0 8 6 15 13 15 6 0 -2 9 -19 19
-46 28 -64 59 -64 109 0 37 6 50 34 78 30 30 40 34 86 34 43 0 56 -5 80 -28z"/>
<path d="M7594 1636 c-72 -32 -121 -122 -110 -201 12 -79 104 -155 188 -155
30 0 102 37 130 66 104 112 29 292 -125 300 -29 2 -66 -3 -83 -10z m56 -71
c15 -14 18 -14 30 0 15 18 41 20 58 3 17 -17 15 -38 -5 -60 -17 -19 -16 -19 8
-13 30 7 54 -15 47 -43 -3 -10 1 -23 9 -30 20 -19 16 -50 -8 -62 -16 -9 -24
-8 -38 4 -9 8 -26 13 -37 10 -12 -3 -26 1 -33 10 -11 14 -15 14 -28 1 -23 -23
-52 -18 -59 10 -5 21 -8 23 -21 10 -41 -42 -84 -35 -46 7 10 11 17 29 15 40
-5 29 17 50 45 43 23 -5 32 8 13 20 -11 7 -14 48 -3 58 11 12 36 8 53 -8z"/>
<path d="M8092 1629 c-64 -32 -97 -87 -97 -161 0 -41 4 -62 15 -68 8 -5 11
-10 7 -10 -4 0 -3 -9 3 -20 10 -19 12 -18 40 14 20 22 34 52 40 87 6 29 17 60
24 68 8 9 19 28 25 44 8 20 17 27 36 27 14 0 28 -7 31 -15 4 -8 15 -15 27 -15
20 0 97 -72 97 -92 0 -5 -9 -8 -20 -5 -15 4 -20 0 -20 -13 0 -10 -15 -34 -32
-53 -26 -27 -44 -35 -84 -41 -29 -3 -57 -13 -64 -21 -9 -11 -16 -12 -25 -5 -8
6 -18 5 -30 -4 -18 -13 -17 -15 15 -35 67 -40 132 -38 207 8 38 24 73 94 73
147 0 51 -35 119 -77 151 -48 37 -130 42 -191 12z"/>
<path d="M4115 1623 c-15 -10 -33 -13 -68 -8 -78 10 -103 -30 -49 -80 47 -44
197 -85 248 -68 23 8 30 16 32 42 2 18 -2 39 -8 46 -10 12 -16 12 -41 0 -37
-20 -98 -20 -105 0 -4 9 -1 29 6 46 15 36 11 42 -15 22z"/>
<path d="M8925 1515 c-55 -393 -125 -729 -215 -1040 -25 -86 -28 -107 -19
-140 25 -92 33 -115 41 -115 4 0 8 -12 8 -27 l1 -28 15 27 c24 46 150 434 188
581 38 146 90 396 102 485 6 48 5 54 -14 58 -22 6 -48 79 -43 127 1 19 -2 27
-13 27 -10 0 -21 18 -29 48 l-15 47 -7 -50z"/>
<path d="M12811 1487 c-14 -18 -31 -103 -37 -190 -6 -89 -26 -129 -62 -125
-26 3 -27 6 -28 59 -1 31 -9 70 -18 87 -9 17 -16 41 -16 53 0 12 -3 19 -6 16
-4 -4 -20 5 -36 18 -16 14 -38 25 -49 25 -18 0 -19 -8 -19 -120 l0 -120 -37 0
c-29 0 -34 3 -25 12 30 30 -2 108 -43 108 -17 0 -65 -43 -65 -59 0 -5 4 -22
10 -36 10 -26 9 -26 -28 -23 -37 3 -37 3 -40 52 -4 59 20 129 51 151 21 15 21
15 -8 15 -22 0 -42 -13 -83 -56 -39 -40 -67 -60 -101 -70 -31 -9 -58 -26 -80
-51 -31 -35 -32 -38 -22 -79 6 -24 11 -66 11 -93 0 -48 -1 -51 -26 -51 -54 0
-88 42 -114 140 -16 59 -76 175 -113 217 -29 32 -30 33 -43 14 -8 -11 -15 -48
-15 -83 -2 -76 20 -220 35 -230 6 -4 37 -8 68 -8 31 0 63 -3 72 -6 20 -8 21
-24 1 -24 -12 0 -14 -7 -9 -26 5 -18 3 -25 -7 -24 -36 5 -43 0 -25 -19 9 -10
14 -25 10 -35 -4 -11 -1 -16 14 -16 25 0 33 -30 31 -116 -1 -38 3 -70 10 -77
6 -6 11 -22 11 -36 1 -25 1 -25 15 6 7 17 24 39 38 47 22 15 27 15 68 -4 24
-11 54 -20 66 -20 13 0 45 -23 77 -55 70 -68 121 -85 262 -85 100 0 102 1 120
27 15 22 20 51 22 132 l4 104 56 -7 c77 -9 141 -41 157 -79 8 -20 15 -26 20
-17 9 15 20 230 12 230 -4 0 -22 -16 -42 -36 -39 -38 -62 -40 -57 -5 2 21 0
20 -29 -8 -17 -17 -36 -31 -44 -31 -17 0 -38 26 -33 42 2 6 -4 20 -14 30 -26
26 -23 78 7 119 13 19 35 50 49 69 13 19 38 51 56 70 18 19 43 52 57 72 14 20
36 44 49 53 13 8 24 24 24 35 0 11 9 29 20 40 19 19 19 19 -28 32 -36 10 -48
19 -50 36 -4 25 -33 30 -51 9z"/>
<path d="M10340 1389 c-14 -6 -44 -8 -67 -4 -35 5 -45 2 -62 -16 -29 -32 -35
-56 -21 -90 12 -29 21 -33 92 -43 31 -4 37 -1 42 19 7 28 40 50 86 59 19 3 28
3 20 -1 -24 -10 -50 -44 -50 -65 0 -11 -4 -17 -9 -14 -5 3 -11 -12 -13 -34 -3
-39 -2 -41 33 -52 31 -9 41 -8 63 8 33 24 32 32 -1 39 -42 9 -58 20 -61 43 -4
23 45 65 95 83 25 8 30 15 25 32 -2 12 -9 28 -15 35 -11 15 -120 15 -157 1z"/>
<path d="M11055 1339 c-51 -37 -118 -67 -173 -80 -24 -5 -51 -17 -60 -25 -15
-15 -14 -18 2 -29 10 -8 16 -23 14 -37 -2 -18 -10 -23 -33 -24 -16 -1 -36 -2
-42 -3 -18 -2 -16 -21 1 -21 8 0 17 -8 21 -19 3 -10 15 -27 27 -37 21 -19 21
-19 15 7 -4 16 -1 33 8 45 8 10 15 14 15 7 0 -6 -4 -15 -10 -18 -5 -3 -10 -11
-10 -17 0 -6 11 -1 25 12 l25 24 40 -43 c22 -23 40 -52 40 -63 0 -14 5 -18 16
-14 12 4 14 1 10 -14 -3 -11 -9 -29 -12 -40 -9 -33 11 -22 29 15 10 21 17 60
17 96 l0 61 60 58 c51 49 60 63 60 93 0 29 -4 36 -25 41 -26 7 -34 31 -13 38
7 3 8 7 3 10 -6 3 -28 -8 -50 -23z"/>
<path d="M13163 1293 c-58 -95 -86 -132 -122 -163 -22 -19 -41 -43 -41 -52 0
-10 2 -18 5 -18 13 0 125 54 158 77 l37 26 0 78 c0 84 -9 96 -37 52z"/>
<path d="M9095 1245 c-2 -5 -6 -29 -8 -53 -4 -34 -2 -42 8 -38 36 13 134 29
148 23 22 -8 22 -54 0 -66 -10 -5 -53 -16 -95 -26 -43 -9 -78 -20 -78 -24 0
-21 -53 -327 -75 -432 -32 -150 -106 -450 -134 -539 -12 -36 -21 -71 -21 -77
0 -10 170 -13 815 -13 l815 0 0 34 c0 29 -4 34 -28 39 -40 8 -123 67 -147 104
-11 17 -31 34 -45 37 -14 3 -33 18 -42 35 -9 17 -29 36 -43 43 -16 7 -28 23
-32 39 -3 17 -13 29 -27 33 -30 7 -106 58 -106 71 0 6 -9 18 -20 28 -11 9 -20
28 -20 41 0 17 -7 26 -25 30 -14 4 -25 11 -25 16 0 6 -7 10 -15 10 -8 0 -15 4
-15 10 0 5 -10 12 -23 15 -54 14 -111 126 -100 200 l6 45 -84 86 c-68 69 -77
82 -48 66 20 -11 43 -20 50 -20 41 2 69 -3 64 -12 -4 -6 8 -10 30 -10 l36 0
-21 30 c-37 52 -7 32 39 -26 37 -46 46 -53 53 -39 16 28 11 72 -11 101 -26 33
-147 108 -294 180 -89 44 -107 50 -102 34 5 -17 2 -19 -28 -18 -27 1 -36 6
-43 27 l-9 25 -149 1 c-91 0 -150 -4 -151 -10z m253 -227 c7 -7 12 -18 12 -26
0 -8 -57 -95 -126 -193 -114 -162 -129 -180 -153 -177 -49 6 -38 38 65 190
154 226 168 240 202 206z"/>
<path d="M9840 1144 c0 -3 15 -24 34 -47 43 -54 56 -80 56 -111 0 -29 16 -41
50 -38 52 6 87 90 57 136 -12 18 -31 26 -78 35 -35 6 -67 15 -73 21 -11 11
-46 14 -46 4z"/>
<path d="M11420 1001 c0 -11 15 -55 34 -98 19 -43 37 -105 41 -138 4 -33 16
-87 28 -120 14 -41 22 -101 27 -190 l7 -130 1 105 c1 58 6 157 11 220 6 63 12
163 16 222 l6 106 -53 15 c-105 30 -118 31 -118 8z"/>
<path d="M10575 995 c26 -11 31 -21 41 -71 7 -33 11 -62 9 -65 -2 -3 -23 -18
-45 -34 -40 -28 -41 -28 -76 -12 -19 10 -37 17 -39 17 -13 0 -2 -51 16 -74 16
-20 29 -26 60 -26 21 0 39 -5 39 -10 0 -6 21 -20 48 -31 26 -11 54 -26 62 -34
8 -7 38 -25 67 -40 83 -43 87 -60 7 -30 -38 14 -73 30 -78 35 -6 6 -14 10 -19
10 -12 0 74 -77 114 -103 22 -14 29 -16 29 -5 0 8 4 6 11 -5 7 -11 8 -38 4
-69 -6 -39 -4 -49 5 -43 10 6 11 -9 8 -63 -3 -56 -8 -75 -23 -86 -11 -9 -14
-16 -7 -16 17 0 15 -20 -3 -20 -9 0 -12 -6 -8 -16 5 -13 7 -13 14 -2 6 9 9 4
9 -15 0 -20 -7 -30 -24 -37 -31 -11 -42 -30 -25 -41 9 -6 18 -3 25 6 7 10 29
15 61 15 82 0 112 -9 119 -36 7 -26 9 -27 37 -15 15 5 19 22 23 91 6 109 18
160 57 242 l32 68 55 -6 c39 -4 60 -2 74 9 18 13 18 15 1 51 -10 21 -19 59
-19 84 l-1 46 -105 61 c-58 34 -146 91 -196 127 -119 87 -162 108 -217 106
-29 0 -62 8 -96 26 -29 14 -58 26 -64 25 -7 0 1 -7 18 -14z m119 -83 c60 -33
80 -78 70 -154 l-7 -48 -77 42 c-63 34 -76 45 -72 61 3 11 18 25 34 31 33 12
35 21 8 36 -19 10 -29 60 -12 60 4 0 29 -13 56 -28z m216 -121 c21 -22 50 -46
66 -54 16 -9 42 -29 57 -46 l29 -31 -29 -11 c-27 -11 -122 -7 -143 6 -5 3 -10
29 -10 56 0 27 -7 65 -14 84 -20 47 -3 45 44 -4z"/>
<path d="M2550 580 c-8 -5 -30 -10 -47 -10 -26 0 -46 -12 -95 -57 -74 -69
-178 -177 -174 -180 2 -2 57 3 123 11 115 13 122 15 154 47 98 97 105 100 172
93 34 -4 69 -10 78 -15 9 -4 28 -10 42 -13 24 -4 27 -2 27 26 0 50 -69 90
-160 93 -30 1 -66 4 -80 8 -14 4 -32 3 -40 -3z"/>
<path d="M2832 438 c-7 -7 -12 -21 -12 -33 0 -11 -7 -30 -15 -42 -14 -20 -13
-22 27 -38 56 -22 131 -13 145 18 15 33 -21 77 -63 77 -17 0 -37 7 -44 15 -15
18 -22 19 -38 3z"/>
<path d="M2713 217 c-29 -6 -53 -15 -53 -20 0 -5 11 -6 24 -3 35 9 60 -2 45
-20 -13 -16 -45 -18 -54 -4 -4 7 -14 5 -28 -5 -27 -19 -47 -19 -47 0 0 22 -10
19 -59 -20 -24 -19 -48 -35 -52 -35 -5 0 -9 -7 -9 -15 0 -8 -18 -28 -40 -46
-22 -18 -37 -36 -34 -41 3 -4 49 -8 103 -7 78 1 101 4 113 17 9 10 32 32 52
51 20 19 36 37 36 41 0 4 13 13 29 20 18 7 31 21 33 33 2 14 11 23 26 25 25 4
28 12 10 30 -13 13 -21 13 -95 -1z"/>
<path d="M4375 9 c-55 -3 869 -6 2054 -7 1185 -1 2152 0 2149 3 -7 7 -4080 11
-4203 4z"/>
</g>
</svg>
